<svg width="24" height="79" viewBox="0 0 24 79" fill="none" xmlns="http://www.w3.org/2000/svg">
<path d="M11.6428 78.35C11.8361 78.5473 12.1526 78.5505 12.3499 78.3573L15.5645 75.2083C15.7618 75.0151 15.765 74.6985 15.5718 74.5012C15.3786 74.304 15.062 74.3007 14.8647 74.4939L12.0073 77.293L9.20819 74.4356C9.01495 74.2383 8.69839 74.2351 8.50112 74.4283C8.30385 74.6215 8.30059 74.9381 8.49383 75.1354L11.6428 78.35ZM11.6857 59.9948L11.5 77.995L12.5 78.0053L12.6856 60.0052L11.6857 59.9948Z" fill="black"/>
<rect x="0.1" y="0.1" width="23.8" height="54.8" stroke="black" stroke-width="0.2"/>
<path d="M16 37.4423V39.5303C16 39.6183 15.956 39.6623 15.868 39.6623H15.592C15.512 39.6623 15.472 39.6183 15.472 39.5303V37.5023C15.472 36.7823 15.192 36.4223 14.632 36.4223H14.344C13.824 36.4223 13.484 36.6463 13.324 37.0943L12.748 38.5943C12.588 39.0023 12.4 39.2943 12.184 39.4703C11.968 39.6383 11.668 39.7223 11.284 39.7223C10.348 39.7223 9.88 39.2063 9.88 38.1743V36.2303C9.88 36.1423 9.924 36.0983 10.012 36.0983H10.288C10.368 36.0983 10.408 36.1423 10.408 36.2303V38.1143C10.408 38.4423 10.48 38.6903 10.624 38.8583C10.768 39.0183 10.936 39.0983 11.128 39.0983H11.404C11.628 39.0983 11.804 39.0383 11.932 38.9183C12.06 38.7903 12.168 38.5983 12.256 38.3423L12.856 36.8423C12.992 36.4263 13.196 36.1503 13.468 36.0143C13.732 35.8703 14.104 35.7983 14.584 35.7983C15.064 35.7983 15.42 35.9343 15.652 36.2063C15.884 36.4703 16 36.8823 16 37.4423ZM15.592 30.8343H15.868C15.956 30.8343 16 30.8783 16 30.9663V32.6943C16 33.2143 15.848 33.6263 15.544 33.9303C15.24 34.2263 14.824 34.3743 14.296 34.3743H11.584C11.056 34.3743 10.64 34.2263 10.336 33.9303C10.032 33.6263 9.88 33.2143 9.88 32.6943V30.9663C9.88 30.8783 9.924 30.8343 10.012 30.8343H10.3C10.38 30.8343 10.42 30.8783 10.42 30.9663V32.6463C10.42 33.0143 10.524 33.2943 10.732 33.4863C10.94 33.6783 11.232 33.7743 11.608 33.7743H14.272C14.648 33.7743 14.94 33.6783 15.148 33.4863C15.356 33.2943 15.46 33.0143 15.46 32.6463V30.9663C15.46 30.8783 15.504 30.8343 15.592 30.8343ZM16 29.0636V29.4116C16 29.4916 15.952 29.5316 15.856 29.5316H10.024C9.928 29.5316 9.88 29.4916 9.88 29.4116V29.0636C9.88 28.9756 9.928 28.9316 10.024 28.9316H10.528V28.8836C10.36 28.7956 10.212 28.6396 10.084 28.4156C9.948 28.1916 9.88 27.9156 9.88 27.5876V27.1196C9.88 27.0316 9.924 26.9876 10.012 26.9876H10.3C10.388 26.9876 10.428 27.0316 10.42 27.1196V27.6836C10.42 28.0756 10.54 28.3836 10.78 28.6076C11.02 28.8236 11.344 28.9316 11.752 28.9316H15.856C15.952 28.9316 16 28.9756 16 29.0636ZM16 23.1779V24.2099C16 24.7299 15.848 25.1419 15.544 25.4459C15.24 25.7419 14.824 25.8899 14.296 25.8899H11.584C11.056 25.8899 10.64 25.7419 10.336 25.4459C10.032 25.1419 9.88 24.7299 9.88 24.2099V23.1779C9.88 22.6579 10.032 22.2459 10.336 21.9419C10.64 21.6379 11.056 21.4859 11.584 21.4859H14.296C14.824 21.4859 15.24 21.6379 15.544 21.9419C15.848 22.2459 16 22.6579 16 23.1779ZM15.46 24.1619V23.2259C15.46 22.8579 15.36 22.5779 15.16 22.3859C14.952 22.1859 14.66 22.0859 14.284 22.0859H11.596C11.22 22.0859 10.932 22.1859 10.732 22.3859C10.524 22.5779 10.42 22.8579 10.42 23.2259V24.1619C10.42 24.5299 10.524 24.8099 10.732 25.0019C10.932 25.1939 11.22 25.2899 11.596 25.2899H14.284C14.66 25.2899 14.952 25.1939 15.16 25.0019C15.36 24.8099 15.46 24.5299 15.46 24.1619ZM16 19.2888V19.6368C16 19.7168 15.952 19.7568 15.856 19.7568H7.708C7.612 19.7568 7.564 19.7168 7.564 19.6368V19.2888C7.564 19.2008 7.612 19.1568 7.708 19.1568H15.856C15.952 19.1568 16 19.2008 16 19.2888ZM16 16.7693V17.1173C16 17.1973 15.952 17.2373 15.856 17.2373H7.708C7.612 17.2373 7.564 17.1973 7.564 17.1173V16.7693C7.564 16.6813 7.612 16.6373 7.708 16.6373H15.856C15.952 16.6373 16 16.6813 16 16.7693Z" fill="black"/>
</svg>
