<svg width="156" height="74" viewBox="0 0 156 74" fill="none" xmlns="http://www.w3.org/2000/svg">
<path d="M15.604 30H13.564C13.228 30 13.06 29.832 13.06 29.496V15.072C13.06 14.736 13.228 14.568 13.564 14.568H19.42C20.668 14.568 21.636 14.912 22.324 15.6C23.012 16.272 23.356 17.232 23.356 18.48V20.784C23.356 22.032 23.012 23 22.324 23.688C21.636 24.36 20.668 24.696 19.42 24.696H16.396C16.204 24.696 16.108 24.784 16.108 24.96V29.496C16.108 29.832 15.94 30 15.604 30ZM16.372 22.032H18.916C19.428 22.032 19.788 21.928 19.996 21.72C20.204 21.496 20.308 21.136 20.308 20.64V18.624C20.308 18.112 20.204 17.752 19.996 17.544C19.788 17.32 19.428 17.208 18.916 17.208H16.372C16.196 17.208 16.108 17.296 16.108 17.472V21.768C16.108 21.944 16.196 22.032 16.372 22.032ZM28.2106 26.544V29.496C28.2106 29.832 28.0586 30 27.7546 30H25.6186C25.2986 30 25.1386 29.832 25.1386 29.496V26.568C25.1386 26.248 25.2986 26.088 25.6186 26.088H27.7546C28.0586 26.088 28.2106 26.24 28.2106 26.544ZM33.229 30H31.189C30.853 30 30.685 29.832 30.685 29.496V15.072C30.685 14.736 30.853 14.568 31.189 14.568H33.229C33.565 14.568 33.733 14.736 33.733 15.072V20.712C33.733 20.888 33.829 20.976 34.021 20.976H38.077C38.253 20.976 38.341 20.888 38.341 20.712V15.072C38.341 14.736 38.509 14.568 38.845 14.568H40.885C41.221 14.568 41.389 14.736 41.389 15.072V29.496C41.389 29.832 41.221 30 40.885 30H38.845C38.509 30 38.341 29.832 38.341 29.496V23.88C38.341 23.704 38.253 23.616 38.077 23.616H34.021C33.829 23.616 33.733 23.704 33.733 23.88V29.496C33.733 29.832 33.565 30 33.229 30Z" fill="black"/>
<path d="M5.5 0.5H46.5944L60.4056 21.5061L46.5877 43.5H5.5V0.5Z" stroke="black"/>
<path d="M0.5 0.5H41.5944L55.4056 21.5061L41.5877 43.5H0.5V0.5Z" stroke="black"/>
</svg>
